# xmcd
#
# Track frame offsets: 
#        150
#        18546
#        40191
#        57405
#        84086
#        103913
#        126857
#        147248
#
# Disc length: 2279 seconds
#
# Revision: 0
# Processed by: cddbd v1.5.2PL0 Copyright (c) Steve Scherf et al.
# Submitted via: ExactAudioCopyFreeDBPlugin 1.0
#
DISCID=6808e508
DTITLE=Subhamita - Brishti Paye Paye
DYEAR=2009
DGENRE=Bengali Modern
TTITLE0=Dekhechho Ki Take
TTITLE1=Batash Daake Na
TTITLE2=Jei Din Geche Dure Chole
TTITLE3=Sujon Aamar
TTITLE4=Hoyto Jabe Bhule
TTITLE5=Ke Moner Ghawre
TTITLE6=Ure Ja Na
TTITLE7=Megheder Minare
EXTD=
EXTT0=
EXTT1=
EXTT2=
EXTT3=
EXTT4=
EXTT5=
EXTT6=
EXTT7=
PLAYORDER=
